<?xml version="1.0" standalone="no"?>
<!DOCTYPE svg PUBLIC "-//W3C//DTD SVG 20010904//EN"
 "http://www.w3.org/TR/2001/REC-SVG-20010904/DTD/svg10.dtd">
<svg version="1.0" xmlns="http://www.w3.org/2000/svg"
 width="512.000000pt" height="512.000000pt" viewBox="0 0 512.000000 512.000000"
 preserveAspectRatio="xMidYMid meet">

<g transform="translate(0.000000,512.000000) scale(0.100000,-0.100000)"
fill="#000000" stroke="none">
<path d="M610 5105 c-306 -61 -549 -316 -599 -625 -7 -41 -11 -313 -11 -728 0
-566 2 -674 16 -740 48 -236 195 -427 409 -532 174 -86 12 -80 2130 -80 1676
0 1884 2 1953 16 300 62 536 300 598 604 13 65 14 177 12 775 l-3 700 -24 70
c-46 138 -98 222 -201 326 -81 82 -109 102 -190 142 -183 90 29 82 -2120 84
-1537 1 -1918 -1 -1970 -12z m853 -610 c180 -47 308 -185 339 -365 20 -116 -6
-218 -89 -351 -15 -24 -15 -27 15 -68 148 -204 82 -505 -139 -638 -92 -55
-152 -65 -381 -61 -191 3 -205 4 -234 25 -66 47 -64 24 -64 723 0 631 0 632
22 671 39 69 74 79 288 79 132 0 202 -4 243 -15z m862 -5 c26 -13 49 -34 63
-59 22 -38 22 -44 22 -521 0 -533 -1 -527 64 -573 23 -16 45 -22 86 -22 41 0
63 6 86 22 65 46 64 40 64 573 0 477 0 483 22 521 23 41 84 79 128 79 44 0
105 -38 128 -79 22 -38 22 -44 22 -524 0 -319 -4 -504 -11 -539 -44 -206 -229
-358 -439 -358 -210 0 -395 152 -439 358 -7 35 -11 220 -11 539 0 480 0 486
22 524 23 41 84 79 127 79 14 0 43 -9 66 -20z m1202 -1 c41 -20 47 -29 135
-205 51 -101 95 -184 98 -184 3 0 47 83 98 184 88 176 94 185 135 205 54 26
80 26 133 0 48 -23 84 -82 84 -137 0 -20 -53 -137 -150 -332 l-150 -300 0
-296 c0 -327 -3 -343 -64 -387 -43 -31 -129 -31 -172 0 -61 44 -64 60 -64 387
l0 296 -150 300 c-97 195 -150 312 -150 332 0 54 36 114 83 137 53 26 80 26
134 0z"/>
<path d="M1210 4060 l0 -150 91 0 c103 0 147 15 181 62 52 73 24 179 -57 218
-32 15 -62 20 -128 20 l-87 0 0 -150z"/>
<path d="M1210 3460 l0 -150 91 0 c103 0 147 15 181 62 52 73 24 179 -57 218
-32 15 -62 20 -128 20 l-87 0 0 -150z"/>
<path d="M1294 2080 c-109 -54 -109 -212 0 -264 50 -23 382 -23 432 0 110 52
109 211 -1 264 -36 18 -62 20 -216 20 -154 0 -179 -2 -215 -20z"/>
<path d="M3382 1780 c-43 -27 -72 -76 -72 -125 0 -26 80 -279 220 -701 200
-599 224 -664 254 -693 36 -35 84 -47 142 -36 30 5 61 30 160 127 l123 121
240 -231 c319 -308 304 -306 523 -85 211 214 212 205 -110 519 l-227 222 117
119 c64 65 122 131 127 147 26 66 2 145 -52 181 -40 26 -1338 455 -1377 455
-19 0 -50 -9 -68 -20z"/>
<path d="M1850 1441 c-56 -30 -265 -250 -279 -294 -17 -49 -7 -98 26 -138 48
-56 116 -73 176 -43 39 19 263 238 283 276 8 15 14 46 14 70 0 113 -119 182
-220 129z"/>
<path d="M2494 1180 c-25 -13 -49 -35 -62 -59 -20 -36 -22 -52 -22 -221 0
-203 7 -232 64 -273 43 -31 129 -31 172 0 57 41 64 70 64 273 0 169 -2 185
-22 221 -23 41 -85 79 -129 79 -13 0 -42 -9 -65 -20z"/>
</g>
</svg>
